<svg width="34" height="34" viewBox="0 0 34 34" fill="none" xmlns="http://www.w3.org/2000/svg">
<path d="M17 31.1666C24.824 31.1666 31.1667 24.824 31.1667 16.9999C31.1667 9.17588 24.824 2.83325 17 2.83325C9.17596 2.83325 2.83333 9.17588 2.83333 16.9999C2.83333 24.824 9.17596 31.1666 17 31.1666Z" stroke="black" stroke-width="3" stroke-linecap="round" stroke-linejoin="round"/>
<path d="M17.1402 5.8919L22.6738 16.959L17.1402 28.0261L11.6067 16.959L17.1402 5.8919Z" stroke="#B1B1B1" stroke-width="3" stroke-linecap="round" stroke-linejoin="round"/>
<path d="M22.1764 17H11.8236C11.6749 17 11.5782 16.8435 11.6447 16.7106L16.8211 6.35777C16.8948 6.21036 17.1052 6.21036 17.1789 6.35777L22.3553 16.7106C22.4218 16.8435 22.3251 17 22.1764 17Z" fill="#3C67FF" stroke="black" stroke-width="3"/>
</svg>
